<svg xmlns="http://www.w3.org/2000/svg" xmlns:xlink="http://www.w3.org/1999/xlink" width="200" zoomAndPan="magnify" viewBox="0 0 150 149.999998" height="200" preserveAspectRatio="xMidYMid meet" version="1.0"><defs><clipPath id="7470178ea6"><path d="M 52.339844 32.753906 L 64.300781 32.753906 L 64.300781 81.636719 L 52.339844 81.636719 Z M 52.339844 32.753906 " clip-rule="nonzero"/></clipPath><clipPath id="20c87396e9"><path d="M 60.074219 34.726562 C 56.324219 40.273438 56.023438 41.25 55.648438 43.050781 C 55.050781 46.425781 54.523438 53.324219 54.824219 57.898438 C 55.125 62.023438 55.949219 66 57.074219 69.300781 C 58.125 72.226562 59.773438 75.074219 61.125 76.949219 C 62.175781 78.300781 64.125 79.199219 64.273438 80.101562 C 64.273438 80.699219 63.75 81.449219 63.375 81.601562 C 63 81.675781 62.25 81.300781 62.023438 81 C 61.875 80.699219 61.875 80.175781 62.023438 79.875 C 62.25 79.574219 63 79.199219 63.375 79.273438 C 63.675781 79.273438 64.125 79.648438 64.199219 79.949219 C 64.351562 80.324219 64.125 81.148438 63.824219 81.375 C 63.601562 81.601562 63.148438 81.675781 62.699219 81.601562 C 62.023438 81.375 61.050781 80.398438 60.226562 79.5 C 59.101562 78.300781 57.976562 76.5 57 74.625 C 55.800781 72.300781 54.675781 69.148438 53.925781 66.375 C 53.175781 63.601562 52.800781 60.976562 52.574219 57.976562 C 52.273438 54.449219 52.273438 49.648438 52.648438 46.648438 C 52.875 44.476562 53.398438 42.824219 53.851562 41.25 C 54.226562 39.976562 54.449219 38.925781 55.050781 37.726562 C 55.726562 36.375 56.851562 34.351562 57.898438 33.601562 C 58.5 33.074219 59.550781 32.625 59.925781 32.851562 C 60.226562 33.074219 60.074219 34.726562 60.074219 34.726562 " clip-rule="nonzero"/></clipPath><clipPath id="eaf54d33ad"><path d="M 68.773438 79.460938 L 72.449219 79.460938 L 72.449219 85 L 68.773438 85 Z M 68.773438 79.460938 " clip-rule="nonzero"/></clipPath><clipPath id="36fbc5ce29"><path d="M 71.625 81.148438 C 72.074219 84.75 71.398438 85.050781 71.023438 84.976562 C 70.648438 84.824219 69.976562 84.074219 70.050781 83.699219 C 70.125 83.25 71.25 82.648438 71.625 82.648438 C 71.925781 82.648438 72.148438 82.875 72.226562 83.101562 C 72.375 83.476562 72.375 84.226562 72.148438 84.523438 C 71.925781 84.824219 71.398438 85.050781 71.101562 84.976562 C 70.726562 84.898438 70.125 84.300781 70.050781 83.925781 C 69.976562 83.625 70.125 83.023438 70.425781 82.875 C 70.800781 82.726562 72.148438 83.023438 72.375 83.324219 C 72.523438 83.625 71.925781 84.675781 71.925781 84.75 C 72 84.75 72.449219 83.851562 72.449219 83.851562 C 72.449219 83.851562 72.148438 84.675781 71.851562 84.824219 C 71.550781 84.976562 70.949219 84.898438 70.5 84.675781 C 69.898438 84.375 69 83.101562 68.851562 82.351562 C 68.699219 81.824219 68.925781 81.300781 69.226562 80.851562 C 69.523438 80.324219 70.351562 79.425781 70.726562 79.5 C 71.101562 79.574219 71.625 81.148438 71.625 81.148438 " clip-rule="nonzero"/></clipPath><clipPath id="e0445ef51f"><path d="M 24.015625 91.605469 L 54.1875 91.605469 L 54.1875 120.957031 L 24.015625 120.957031 Z M 24.015625 91.605469 " clip-rule="nonzero"/></clipPath><clipPath id="c145b66e7b"><path d="M 53.476562 93.824219 C 29.550781 110.550781 28.5 113.25 27.523438 115.5 C 26.851562 117.226562 27 119.476562 26.25 120.226562 C 25.875 120.601562 25.050781 120.898438 24.75 120.675781 C 24.375 120.523438 24.148438 119.398438 24.300781 119.101562 C 24.523438 118.800781 25.949219 118.800781 26.175781 119.023438 C 26.398438 119.324219 25.875 120.675781 25.574219 120.824219 C 25.199219 120.898438 24.375 120.226562 24.148438 119.550781 C 23.851562 118.5 24.898438 116.25 25.574219 114.601562 C 26.398438 112.574219 27.898438 109.875 29.023438 108.300781 C 29.773438 107.25 30.074219 106.949219 31.351562 105.898438 C 34.648438 103.050781 47.851562 93.601562 51.375 92.175781 C 52.425781 91.800781 53.25 91.574219 53.699219 91.875 C 54 92.023438 54.226562 92.699219 54.148438 93 C 54.074219 93.375 53.476562 93.824219 53.476562 93.824219 " clip-rule="nonzero"/></clipPath><clipPath id="2a5da38455"><path d="M 24.804688 123.429688 L 27.253906 123.429688 L 27.253906 126.476562 L 24.804688 126.476562 Z M 24.804688 123.429688 " clip-rule="nonzero"/></clipPath><clipPath id="31f42b8ab9"><path d="M 27.226562 125.324219 C 26.476562 126.449219 25.574219 126.449219 25.351562 126.226562 C 25.125 125.925781 25.273438 124.5 25.574219 124.351562 C 25.875 124.199219 27.226562 124.875 27.226562 125.25 C 27.300781 125.550781 26.175781 126.523438 25.800781 126.449219 C 25.425781 126.375 24.75 125.25 24.824219 124.726562 C 24.824219 124.273438 25.5 123.523438 25.949219 123.449219 C 26.324219 123.375 27.226562 124.125 27.226562 124.125 " clip-rule="nonzero"/></clipPath><clipPath id="e82aab6c84"><path d="M 98.136719 92.34375 L 126.921875 92.34375 L 126.921875 120.730469 L 98.136719 120.730469 Z M 98.136719 92.34375 " clip-rule="nonzero"/></clipPath><clipPath id="1e9383dbf6"><path d="M 99.824219 92.398438 C 112.199219 101.324219 119.101562 106.949219 122.324219 110.550781 C 124.273438 112.800781 125.699219 114.75 126.300781 116.550781 C 126.75 117.824219 127.050781 119.398438 126.675781 120.074219 C 126.300781 120.523438 125.101562 120.824219 124.800781 120.601562 C 124.574219 120.375 124.726562 118.949219 125.023438 118.726562 C 125.25 118.5 125.851562 118.5 126.074219 118.648438 C 126.375 118.875 126.824219 119.625 126.675781 119.925781 C 126.523438 120.300781 125.398438 120.898438 124.949219 120.675781 C 124.199219 120.300781 124.351562 117.523438 123.75 116.175781 C 123.148438 114.898438 122.550781 114.148438 121.351562 112.800781 C 119.25 110.324219 114.898438 106.5 111.226562 103.5 C 107.324219 100.273438 99.523438 96.148438 98.476562 94.199219 C 98.101562 93.601562 98.101562 93 98.324219 92.699219 C 98.550781 92.398438 99.824219 92.398438 99.824219 92.398438 " clip-rule="nonzero"/></clipPath><clipPath id="e1e3843f91"><path d="M 87 30.886719 L 95.957031 30.886719 L 95.957031 70.878906 L 87 70.878906 Z M 87 30.886719 " clip-rule="nonzero"/></clipPath><clipPath id="be9de6d0c8"><path d="M 88.800781 30.976562 C 93.675781 37.726562 95.023438 42.449219 95.625 45.976562 C 96.074219 49.125 95.925781 52.199219 95.625 55.199219 C 95.398438 58.050781 94.726562 60.898438 94.050781 63.523438 C 93.449219 65.925781 92.925781 69.523438 91.875 70.425781 C 91.351562 70.875 90.523438 70.949219 90.148438 70.726562 C 89.851562 70.574219 89.550781 69.675781 89.773438 69.300781 C 89.925781 68.925781 90.976562 68.476562 91.351562 68.699219 C 91.726562 68.851562 92.175781 69.976562 91.949219 70.351562 C 91.800781 70.726562 90.601562 71.023438 90.226562 70.800781 C 89.925781 70.648438 89.773438 70.199219 89.699219 69.449219 C 89.550781 67.199219 92.699219 59.398438 93.226562 55.199219 C 93.601562 51.898438 93.601562 49.351562 93.148438 46.273438 C 92.625 42.976562 91.351562 38.398438 90 35.925781 C 89.175781 34.273438 87.226562 33.226562 87.074219 32.324219 C 86.925781 31.800781 87.148438 31.273438 87.449219 31.050781 C 87.75 30.824219 88.800781 30.976562 88.800781 30.976562 " clip-rule="nonzero"/></clipPath></defs><path fill="#ffeea9" d="M 150.007812 75.003906 C 150.007812 94.191406 142.804688 111.691406 130.949219 124.953125 C 117.21875 140.332031 97.242188 150.003906 75.003906 150.003906 C 52.765625 150.003906 32.785156 140.332031 19.058594 124.953125 C 7.203125 111.691406 0.00390625 94.191406 0.00390625 75.003906 C 0.00390625 33.582031 33.578125 0 75.003906 0 C 116.425781 0 150.007812 33.582031 150.007812 75.003906 " fill-opacity="1" fill-rule="nonzero"/><path fill="#ffcc00" d="M 75.003906 88.820312 C 88.597656 88.820312 100.980469 73.441406 100.980469 56.550781 C 100.980469 40.597656 97.894531 24.820312 75.003906 24.820312 C 52.113281 24.820312 49.027344 40.597656 49.027344 56.550781 C 49.027344 73.441406 61.410156 88.820312 75.003906 88.820312 " fill-opacity="1" fill-rule="nonzero"/><path fill="#ffcc00" d="M 130.949219 124.953125 C 117.21875 140.332031 97.242188 150.003906 75.003906 150.003906 C 52.765625 150.003906 32.785156 140.332031 19.058594 124.953125 C 18.820312 115.691406 24.992188 94.230469 56.453125 87.621094 C 61.835938 93.117188 68.460938 96.222656 75.003906 96.222656 C 81.546875 96.222656 88.167969 93.117188 93.546875 87.621094 C 125.019531 94.230469 131.179688 115.691406 130.949219 124.953125 " fill-opacity="1" fill-rule="nonzero"/><g clip-path="url(#7470178ea6)"><g clip-path="url(#20c87396e9)"><path fill="#ffeea9" d="M 49.574219 29.851562 L 67.273438 29.851562 L 67.273438 84.609375 L 49.574219 84.609375 Z M 49.574219 29.851562 " fill-opacity="1" fill-rule="nonzero"/></g></g><g clip-path="url(#eaf54d33ad)"><g clip-path="url(#36fbc5ce29)"><path fill="#ffeea9" d="M 65.851562 76.5 L 75.449219 76.5 L 75.449219 87.976562 L 65.851562 87.976562 Z M 65.851562 76.5 " fill-opacity="1" fill-rule="nonzero"/></g></g><g clip-path="url(#e0445ef51f)"><g clip-path="url(#c145b66e7b)"><path fill="#ffeea9" d="M 21.148438 88.875 L 57.191406 88.875 L 57.191406 123.824219 L 21.148438 123.824219 Z M 21.148438 88.875 " fill-opacity="1" fill-rule="nonzero"/></g></g><g clip-path="url(#2a5da38455)"><g clip-path="url(#31f42b8ab9)"><path fill="#ffeea9" d="M 21.824219 120.449219 L 30.300781 120.449219 L 30.300781 129.519531 L 21.824219 129.519531 Z M 21.824219 120.449219 " fill-opacity="1" fill-rule="nonzero"/></g></g><g clip-path="url(#e82aab6c84)"><g clip-path="url(#1e9383dbf6)"><path fill="#ffeea9" d="M 95.324219 89.398438 L 129.734375 89.398438 L 129.734375 123.675781 L 95.324219 123.675781 Z M 95.324219 89.398438 " fill-opacity="1" fill-rule="nonzero"/></g></g><g clip-path="url(#e1e3843f91)"><g clip-path="url(#be9de6d0c8)"><path fill="#ffeea9" d="M 84.074219 27.976562 L 98.699219 27.976562 L 98.699219 73.847656 L 84.074219 73.847656 Z M 84.074219 27.976562 " fill-opacity="1" fill-rule="nonzero"/></g></g></svg>